<svg width="50" height="50" viewBox="0 0 50 50" fill="none" xmlns="http://www.w3.org/2000/svg">
<g clip-path="url(#clip0_1375_3077)">
<path d="M36.0512 34.3877C37.2641 34.9709 38.2075 35.7336 38.8814 36.6757C39.5553 37.6178 40.027 38.6048 40.2965 39.6367C40.566 40.6685 40.7457 41.6331 40.8356 42.5304C40.9254 43.4276 40.9254 44.123 40.8356 44.6165C40.7457 45.11 40.566 45.4689 40.2965 45.6932C39.6676 46.2316 38.9039 46.7026 38.0054 47.1064C37.1069 47.5102 36.1186 47.8691 35.0404 48.1831C33.9623 48.4972 32.8616 48.7439 31.7385 48.9234L28.4366 49.4617C25.9209 49.7758 23.2704 49.9552 20.4852 50.0001C17.655 49.9552 14.982 49.7758 12.4663 49.4617C11.3881 49.3271 10.2875 49.1477 9.1644 48.9234C8.04131 48.699 6.96314 48.4523 5.9299 48.1831C4.89665 47.9139 3.90833 47.555 2.96494 47.1064C2.02154 46.6578 1.23537 46.1867 0.606443 45.6932C0.336901 45.4689 0.168438 45.1212 0.101052 44.6501C0.0336667 44.1791 0.0224358 43.4725 0.0673595 42.5304C0.112283 41.5882 0.291978 40.6237 0.606443 39.6367C0.920909 38.6497 1.39261 37.6627 2.02154 36.6757C2.65047 35.6887 3.59387 34.9261 4.85173 34.3877L9.02963 32.5034C10.3324 31.9202 11.5004 31.2921 12.5337 30.6192C13.5669 29.9462 14.3531 29.1611 14.8922 28.2639C15.4313 27.3666 15.7233 26.2899 15.7682 25.0337V24.63C15.0045 24.0019 14.4429 23.2616 14.0835 22.4092L12.5337 18.7753C11.725 17.878 11.1186 17.0481 10.7143 16.2854C10.3549 15.6573 10.1752 15.0741 10.1752 14.5357C10.1752 13.9974 10.557 13.7282 11.3207 13.7282C11.0512 12.0234 10.9838 10.4981 11.1186 9.15216C11.2084 8.03059 11.478 6.99873 11.9272 6.05661C12.3764 5.11448 13.1851 4.64342 14.3531 4.64342C14.5777 3.79102 14.9596 3.02834 15.4986 2.3554C15.9928 1.77218 16.6891 1.23382 17.5876 0.740323C18.4861 0.246828 19.6765 0.0225123 21.159 0.0673755C22.5067 0.0673755 23.6074 0.358986 24.4609 0.942207C25.3145 1.52543 26.0557 2.19838 26.6846 2.96105C27.3136 3.72372 27.8302 4.46397 28.2345 5.18178C28.6388 5.89959 29.088 6.41551 29.5822 6.72955C29.7619 6.81928 29.9191 6.93144 30.0539 7.06603C30.1887 7.20062 30.1887 7.38007 30.0539 7.60439C29.8742 8.23247 29.6945 9.15216 29.5148 10.3635C29.3351 11.5748 29.3576 12.6964 29.5822 13.7282C30.3908 13.7731 30.7727 14.0422 30.7278 14.5357C30.6828 15.0292 30.4582 15.6125 30.0539 16.2854C29.6047 17.0481 28.9757 17.878 28.1671 18.7753C27.8526 19.5829 27.6056 20.2782 27.4259 20.8615C27.2462 21.4447 27.044 21.983 26.8194 22.4765C26.5948 22.97 26.3702 23.3514 26.1455 23.6205C25.9209 23.8897 25.584 24.2262 25.1348 24.63V25.0337C25.1348 26.3348 25.4268 27.4115 26.0108 28.2639C26.5948 29.1163 27.4034 29.9014 28.4366 30.6192C29.4699 31.337 30.6154 31.9651 31.8733 32.5034C33.1312 33.0418 34.5238 33.6699 36.0512 34.3877ZM49.124 30.7538C49.708 31.0678 50 31.5389 50 32.167V43.136C50 43.4949 49.8877 43.809 49.6631 44.0781C49.4385 44.3473 49.124 44.5268 48.7197 44.6165C47.8212 44.7959 46.9677 44.9081 46.159 44.953C45.3504 44.9978 44.5867 45.0651 43.8679 45.1549C43.8679 45.11 43.8904 45.0651 43.9353 45.0203C43.9802 44.9754 43.9802 44.9305 43.9353 44.8857C43.9802 44.3024 43.9802 43.4276 43.9353 42.2612C43.8904 41.0947 43.6433 39.8386 43.1941 38.4927C42.7448 37.1468 42.0934 35.8457 41.2399 34.5896C40.3863 33.3334 39.106 32.324 37.3989 31.5613L34.2992 30.1481C34.1195 30.0584 33.8949 29.9687 33.6253 29.8789C34.5687 29.2957 35.3324 28.6228 35.9164 27.8601C36.5004 27.0974 36.77 26.1553 36.7251 25.0337V24.6973C36.0961 24.2038 35.6469 23.6205 35.3774 22.9476L34.1644 19.9866C33.5355 19.2239 33.0413 18.551 32.6819 17.9678C32.3675 17.4743 32.2102 17.0032 32.2102 16.5546C32.2102 16.106 32.5247 15.8592 33.1536 15.8143C32.9739 14.4236 32.929 13.1898 33.0189 12.1131C33.1087 11.2159 33.3333 10.3859 33.6927 9.62323C34.0521 8.86055 34.681 8.47922 35.5795 8.47922C35.7143 7.80627 36.0288 7.20062 36.5229 6.66226C36.9272 6.16877 37.5112 5.72013 38.2749 5.31637C39.0386 4.9126 40.0045 4.73314 41.1725 4.77801C42.2507 4.77801 43.1492 5.00232 43.8679 5.45095C44.5867 5.89959 45.1707 6.43794 45.6199 7.06603L46.9003 8.88299C47.3046 9.46621 47.664 9.86998 47.9784 10.0943C48.2929 10.3186 48.4277 10.5878 48.3828 10.9018C48.2031 11.3953 48.0458 12.1131 47.9111 13.0553C47.7763 13.9974 47.7987 14.9171 47.9784 15.8143C48.6074 15.8592 48.9218 16.106 48.9218 16.5546C48.9218 17.0032 48.7421 17.4967 48.3828 18.0351C48.0234 18.5734 47.5067 19.2239 46.8329 19.9866L45.6873 22.9476C45.4178 23.6205 44.9686 24.2038 44.3396 24.6973V25.0337C44.3396 26.5142 44.7889 27.6582 45.6873 28.4658C46.5858 29.2733 47.7314 30.036 49.124 30.7538Z" fill="#002640"/>
</g>
<defs>
<clipPath id="clip0_1375_3077">
<rect width="50" height="50" fill="white"/>
</clipPath>
</defs>
</svg>
