<svg width="50" height="45" viewBox="0 0 50 45" fill="none" xmlns="http://www.w3.org/2000/svg">
<path d="M4.91136 5.55501C7.54787 2.9444 11.0841 1.41745 14.8104 1.28057C18.5368 1.14369 22.1776 2.407 25.0023 4.81701C27.8244 2.41102 31.4604 1.14913 35.1823 1.28397C38.9042 1.41882 42.4373 2.94045 45.0742 5.54422C47.7112 8.148 49.2575 11.6418 49.4034 15.3261C49.5494 19.0104 48.2843 22.6133 45.8614 25.4135L28.2136 42.941C27.4028 43.744 26.3154 44.2139 25.1694 44.2564C24.0233 44.299 22.9034 43.9111 22.0341 43.1705L21.7841 42.9433L4.13863 25.4135C1.71702 22.6157 0.451314 19.0161 0.594577 15.3344C0.737839 11.6526 2.27951 8.16009 4.91136 5.55501ZM8.125 8.73651C6.26646 10.577 5.19512 13.0553 5.13333 15.657C5.07155 18.2587 6.02406 20.7841 7.79318 22.709L8.125 23.0555L25 39.7618L37.0523 27.8278L29.0182 19.874L26.6091 22.259C25.9761 22.886 25.2245 23.3834 24.3973 23.7229C23.5701 24.0623 22.6834 24.2371 21.788 24.2373C19.9795 24.2378 18.245 23.5269 16.9659 22.2613C15.6868 20.9956 14.968 19.2787 14.9676 17.4883C14.9672 15.698 15.6852 13.9808 16.9636 12.7145L21.7409 7.98276C19.8397 6.4806 17.46 5.69831 15.0288 5.77624C12.5976 5.85418 10.2741 6.78724 8.475 8.40801L8.125 8.73651ZM27.4114 15.0995C27.8376 14.6777 28.4155 14.4407 29.0182 14.4407C29.6208 14.4407 30.1988 14.6777 30.625 15.0995L40.2659 24.644L41.875 23.0555C43.7647 21.1861 44.8405 18.6588 44.8723 16.0143C44.9042 13.3697 43.8896 10.8178 42.0455 8.90426C40.2014 6.99072 37.6742 5.86747 35.0044 5.77473C32.3346 5.68199 29.7341 6.62713 27.7591 8.40801L27.4114 8.73651L20.1795 15.896C19.7856 16.2857 19.5499 16.8051 19.5173 17.3555C19.4846 17.9059 19.6572 18.449 20.0023 18.8818L20.1795 19.0775C20.5732 19.4675 21.0978 19.7008 21.6538 19.7332C22.2097 19.7655 22.7583 19.5947 23.1955 19.253L23.3932 19.0775L27.4114 15.0995Z" fill="#002640"/>
</svg>
