<svg width="65" height="65" viewBox="0 0 65 65" fill="none" xmlns="http://www.w3.org/2000/svg">
<g clip-path="url(#clip0_1251_3412)">
<path d="M32.5008 -0.069458C14.5425 -0.069458 -0.0703125 14.5393 -0.0703125 32.4996C-0.0703125 50.4599 14.5425 65.0686 32.5008 65.0686C50.459 65.0686 65.0719 50.4599 65.0719 32.4996C65.0719 14.5393 50.459 -0.069458 32.5008 -0.069458ZM32.5008 62.8993C15.7389 62.8993 2.10312 49.2615 2.10312 32.4996C2.10312 15.7377 15.7389 2.09992 32.5008 2.09992C49.2626 2.09992 62.8984 15.7377 62.8984 32.4996C62.8984 49.2615 49.2626 62.8993 32.5008 62.8993Z" fill="white"/>
<path d="M39.6095 14.2187H34.1901C27.288 14.1496 26.4064 18.4214 26.4064 23.0445V26.4062H23.3595C23.2218 26.3878 23.0817 26.4014 22.9501 26.4459C22.8185 26.4905 22.6989 26.5648 22.6007 26.663C22.5024 26.7612 22.4282 26.8808 22.3836 27.0124C22.3391 27.144 22.3255 27.2841 22.3439 27.4218V33.5156C22.3255 33.6533 22.3391 33.7934 22.3836 33.925C22.4282 34.0566 22.5024 34.1762 22.6007 34.2744C22.6989 34.3727 22.8185 34.4469 22.9501 34.4915C23.0817 34.536 23.2218 34.5496 23.3595 34.5312H26.4064V49.7656C26.3895 49.9035 26.4043 50.0436 26.4498 50.1749C26.4952 50.3063 26.5701 50.4255 26.6687 50.5235C26.7672 50.6215 26.8869 50.6956 27.0185 50.7403C27.1502 50.785 27.2903 50.799 27.4281 50.7812H33.6336C34.2328 50.8503 34.7183 50.3648 34.5273 49.7656L34.5314 34.5312H39.6095C39.7472 34.5496 39.8873 34.536 40.0189 34.4915C40.1505 34.4469 40.2701 34.3727 40.3684 34.2744C40.4666 34.1762 40.5409 34.0566 40.5854 33.925C40.6299 33.7934 40.6435 33.6533 40.6251 33.5156V27.4218C40.6435 27.2841 40.6299 27.144 40.5854 27.0124C40.5409 26.8808 40.4666 26.7612 40.3684 26.663C40.2701 26.5648 40.1505 26.4905 40.0189 26.4459C39.8873 26.4014 39.7472 26.3878 39.6095 26.4062H34.5253L34.5314 23.3593C34.7284 22.0614 34.7284 22.2726 35.933 22.3437H39.5669C39.8492 22.2807 40.1498 22.3153 40.3611 22.1101C40.5723 21.905 40.6942 21.6246 40.6231 21.3281V15.2343C40.6419 15.0967 40.6286 14.9567 40.5843 14.825C40.54 14.6934 40.466 14.5738 40.3679 14.4755C40.2698 14.3772 40.1503 14.3029 40.0187 14.2583C39.8872 14.2138 39.7472 14.2002 39.6095 14.2187ZM38.5228 20.1987L35.9756 20.1012C32.8211 20.1012 32.557 21.8136 32.557 23.5665L32.5489 27.4178C32.5486 27.5604 32.5765 27.7017 32.6309 27.8335C32.6853 27.9653 32.7651 28.0851 32.8659 28.1861C32.9666 28.287 33.0863 28.3671 33.218 28.4217C33.3498 28.4764 33.491 28.5045 33.6336 28.5045H38.5939V32.4289H33.6376C33.3498 32.4289 33.0737 32.5431 32.8699 32.7464C32.6662 32.9498 32.5515 33.2257 32.5509 33.5136L32.5489 48.75H28.4376V33.5156C28.4376 32.9164 28.0294 32.4309 27.4281 32.4309H24.3751V28.5065H27.4281C27.5706 28.5067 27.7118 28.4789 27.8436 28.4245C27.9753 28.3701 28.095 28.2903 28.1959 28.1896C28.399 27.9845 28.4356 27.7082 28.4356 27.4198V23.0425C28.4356 18.4884 29.3558 16.319 34.1881 16.319H38.5208V20.1987H38.5228Z" fill="white"/>
</g>
<defs>
<clipPath id="clip0_1251_3412">
<rect width="65" height="65" fill="white"/>
</clipPath>
</defs>
</svg>
