<svg width="891" height="480" viewBox="0 0 891 480" fill="none" xmlns="http://www.w3.org/2000/svg">
<mask id="path-1-inside-1_1326_2902" fill="white">
<path fill-rule="evenodd" clip-rule="evenodd" d="M449.306 0.403543C446.669 -0.134512 443.949 -0.134515 441.312 0.40354L158.575 58.0772C154.83 58.8409 151.383 60.6613 148.642 63.3229L6.07017 201.718C0.645215 206.984 -1.34651 214.859 0.922542 222.071L11.153 254.588H879.465L889.695 222.071C891.964 214.859 889.973 206.984 884.548 201.718L741.976 63.3229C739.235 60.6613 735.788 58.8409 732.043 58.0772L449.306 0.403543Z"/>
</mask>
<path fill-rule="evenodd" clip-rule="evenodd" d="M449.306 0.403543C446.669 -0.134512 443.949 -0.134515 441.312 0.40354L158.575 58.0772C154.83 58.8409 151.383 60.6613 148.642 63.3229L6.07017 201.718C0.645215 206.984 -1.34651 214.859 0.922542 222.071L11.153 254.588H879.465L889.695 222.071C891.964 214.859 889.973 206.984 884.548 201.718L741.976 63.3229C739.235 60.6613 735.788 58.8409 732.043 58.0772L449.306 0.403543Z" fill="white"/>
<path d="M441.312 0.40354L442.111 4.32283L442.111 4.32283L441.312 0.40354ZM449.306 0.403543L450.106 -3.51575L450.106 -3.51575L449.306 0.403543ZM158.575 58.0772L159.374 61.9965L159.374 61.9965L158.575 58.0772ZM148.642 63.3229L145.855 60.4527L148.642 63.3229ZM6.07017 201.718L8.85625 204.588L8.85625 204.588L6.07017 201.718ZM0.922542 222.071L4.73815 220.871L4.73815 220.871L0.922542 222.071ZM11.153 254.588L7.33742 255.789L8.21821 258.588H11.153V254.588ZM879.465 254.588V258.588H882.4L883.281 255.789L879.465 254.588ZM889.695 222.071L893.511 223.272L893.511 223.272L889.695 222.071ZM884.548 201.718L887.334 198.848L887.334 198.848L884.548 201.718ZM741.976 63.3229L739.19 66.193L739.19 66.193L741.976 63.3229ZM732.043 58.0772L732.843 54.1579L732.843 54.1579L732.043 58.0772ZM442.111 4.32283C444.221 3.89239 446.397 3.89239 448.507 4.32284L450.106 -3.51575C446.941 -4.16141 443.677 -4.16142 440.512 -3.51575L442.111 4.32283ZM159.374 61.9965L442.111 4.32283L440.512 -3.51575L157.775 54.1579L159.374 61.9965ZM151.428 66.193C153.621 64.0638 156.379 62.6075 159.374 61.9965L157.775 54.1579C153.282 55.0744 149.146 57.2588 145.855 60.4527L151.428 66.193ZM8.85625 204.588L151.428 66.193L145.855 60.4527L3.28409 198.848L8.85625 204.588ZM4.73815 220.871C2.9229 215.101 4.51629 208.801 8.85625 204.588L3.28409 198.848C-3.22586 205.167 -5.61593 214.618 -2.89306 223.272L4.73815 220.871ZM14.9686 253.388L4.73815 220.871L-2.89307 223.272L7.33742 255.789L14.9686 253.388ZM11.153 258.588H879.465V250.588H11.153V258.588ZM885.88 220.871L875.649 253.388L883.281 255.789L893.511 223.272L885.88 220.871ZM881.762 204.588C886.102 208.801 887.695 215.101 885.88 220.871L893.511 223.272C896.234 214.618 893.844 205.167 887.334 198.848L881.762 204.588ZM739.19 66.193L881.762 204.588L887.334 198.848L744.763 60.4527L739.19 66.193ZM731.244 61.9965C734.239 62.6075 736.997 64.0638 739.19 66.193L744.763 60.4528C741.472 57.2588 737.336 55.0744 732.843 54.1579L731.244 61.9965ZM448.507 4.32283L731.244 61.9965L732.843 54.1579L450.106 -3.51575L448.507 4.32283Z" fill="#002640" mask="url(#path-1-inside-1_1326_2902)"/>
<path d="M448.62 32.7724L712.461 83.6119C715.641 84.2248 718.589 85.7084 720.977 87.8976L852.608 208.599C857.694 213.263 859.564 220.48 857.384 227.027L813.787 357.924C812.232 362.592 808.784 366.39 804.288 368.387L593.529 462.012C591.293 463.006 588.872 463.519 586.425 463.519H304.192C301.745 463.519 299.325 463.006 297.088 462.012L86.3293 368.387C81.833 366.39 78.3852 362.592 76.8305 357.924L33.2336 227.027C31.0531 220.48 32.9235 213.263 38.0097 208.599L169.64 87.8976C172.028 85.7084 174.976 84.2248 178.157 83.6119L441.997 32.7724C444.185 32.3509 446.432 32.3509 448.62 32.7724Z" fill="white" stroke="#002640" stroke-width="5"/>
<path d="M17 260.5L13 247L37.5 248L41 258L17 260.5Z" fill="white"/>
<path d="M874.5 257L877 249L852.5 250L849 260L874.5 257Z" fill="white"/>
</svg>
