<svg width="46" height="35" viewBox="0 0 46 35" fill="none" xmlns="http://www.w3.org/2000/svg">
<g clip-path="url(#clip0_1375_3288)">
<path d="M0.5 9.96333L22.2923 20.7375C22.5109 20.8455 22.7536 20.902 23 20.902C23.2464 20.902 23.4891 20.8455 23.7077 20.7375L45.5 9.96528V28.6806C45.5001 30.2947 44.8505 31.8477 43.6843 33.021C42.5182 34.1943 40.9239 34.8989 39.2286 34.9903L38.8523 35H7.14773C5.44972 35.0001 3.81603 34.3825 2.5818 33.274C1.34757 32.1654 0.606361 30.6499 0.510228 29.0383L0.5 28.6806V9.96333ZM7.14773 1.35629e-08H38.8523C40.5503 -0.000105674 42.184 0.617466 43.4182 1.72603C44.6524 2.83459 45.3936 4.3501 45.4898 5.96167L45.5 6.31944V6.67722L23 17.7994L0.5 6.67722V6.31944C0.499889 4.70529 1.14954 3.15228 2.31569 1.979C3.48184 0.805714 5.07608 0.101109 6.77136 0.00972246L7.14773 1.35629e-08H38.8523H7.14773Z" fill="white"/>
</g>
<defs>
<clipPath id="clip0_1375_3288">
<rect width="45" height="35" fill="white" transform="translate(0.5)"/>
</clipPath>
</defs>
</svg>
