<svg width="66" height="65" viewBox="0 0 66 65" fill="none" xmlns="http://www.w3.org/2000/svg">
<g clip-path="url(#clip0_1251_3416)">
<path d="M40.0468 24.2767C38.6696 24.2767 37.6499 24.6241 36.8516 25.0628C36.7237 24.6078 36.3032 24.2747 35.8076 24.3742H29.7463C29.1471 24.2747 28.6616 24.7602 28.8465 25.3899V47.7336C28.6616 48.3024 29.1471 48.7899 29.7463 48.7492H35.8076C36.4068 48.7899 36.8923 48.3024 36.8923 47.7031L36.8902 34.1994C36.8882 34.1933 36.8658 33.5474 37.2741 33.1025C37.6012 32.7491 38.1638 32.5683 38.9418 32.5683C40.2377 32.5683 40.8146 33.0985 41.0299 34.2847V47.7031C40.8166 48.3024 41.3021 48.7899 41.9013 48.7492H48.2896C48.8888 48.7899 49.3743 48.3024 49.159 47.7031V33.8338C49.3722 26.7813 44.349 24.2767 40.0468 24.2767ZM47.2029 46.718H42.986V34.2847C42.986 31.8858 41.4362 30.3989 38.9438 30.3989C37.5341 30.3989 36.4372 30.8133 35.6816 31.6299C34.6315 32.7674 34.7127 34.2095 34.9382 34.5305V46.718H30.831V26.4461H34.7229V27.1286C34.7213 27.3319 34.7771 27.5316 34.8839 27.7046C34.9907 27.8776 35.1441 28.017 35.3265 28.1067C35.509 28.1965 35.713 28.2329 35.9153 28.2119C36.1175 28.1908 36.3097 28.1132 36.4698 27.9878L36.7541 27.7685C37.5768 27.1205 38.4279 26.4481 40.0488 26.4481C41.7266 26.4481 47.2049 26.9824 47.2049 33.8358V46.718H47.2029Z" fill="white"/>
<path d="M22.7507 14.1493C20.4716 14.1493 18.6191 16.0018 18.6191 18.2809C18.6191 20.5599 20.4716 22.4124 22.7507 22.4124C25.0298 22.4124 26.8823 20.5599 26.8823 18.2809C26.8823 16.0018 25.0298 14.1493 22.7507 14.1493ZM22.7507 20.243C21.6701 20.243 20.7885 19.3615 20.7885 18.2809C20.7885 17.2002 21.6701 16.3187 22.7507 16.3187C23.8313 16.3187 24.7129 17.2002 24.7129 18.2809C24.7129 19.3615 23.8313 20.243 22.7507 20.243Z" fill="white"/>
<path d="M25.6509 24.2748H19.6221C19.0229 24.2748 18.5374 24.7602 18.6877 25.3899V47.7337C18.5374 48.3024 19.0229 48.7899 19.6221 48.7493H25.6509C26.2501 48.7899 26.7356 48.3024 26.7356 47.7032V25.3595C26.7356 25.0718 26.6213 24.7959 26.4179 24.5925C26.2144 24.3891 25.9385 24.2748 25.6509 24.2748ZM24.7815 46.7181H20.7068V26.4462H24.7815V46.7181Z" fill="white"/>
<path d="M32.907 -0.069458C14.9466 -0.069458 0.337891 14.5393 0.337891 32.4996C0.337891 50.4599 14.9466 65.0687 32.907 65.0687C50.8673 65.0687 65.476 50.4599 65.476 32.4996C65.476 14.5393 50.8673 -0.069458 32.907 -0.069458ZM32.907 62.8993C16.1451 62.8993 2.50727 49.2615 2.50727 32.4996C2.50727 15.7377 16.1451 2.09992 32.907 2.09992C49.6688 2.09992 63.3066 15.7377 63.3066 32.4996C63.3066 49.2615 49.6688 62.8993 32.907 62.8993Z" fill="white"/>
</g>
<defs>
<clipPath id="clip0_1251_3416">
<rect width="65" height="65" fill="white" transform="translate(0.40625)"/>
</clipPath>
</defs>
</svg>
