<svg width="30" height="35" viewBox="0 0 30 35" fill="none" xmlns="http://www.w3.org/2000/svg">
<g clip-path="url(#clip0_1375_3279)">
<path d="M25.2616 26.0428L23.2833 28.0973C21.825 29.5988 19.9333 31.5307 17.6066 33.8932C16.9073 34.6031 15.9727 35 15 35C14.0272 35 13.0926 34.6031 12.3933 33.8932L6.57495 27.9503C5.84329 27.1961 5.23162 26.5608 4.73829 26.0428C2.7089 23.9119 1.3269 21.1969 0.767049 18.2413C0.207198 15.2856 0.494638 12.2221 1.59302 9.43796C2.69141 6.65385 4.5514 4.27423 6.93781 2.60003C9.32422 0.925827 12.1299 0.0322266 15 0.0322266C17.87 0.0322266 20.6757 0.925827 23.0621 2.60003C25.4485 4.27423 27.3085 6.65385 28.4069 9.43796C29.5053 12.2221 29.7927 15.2856 29.2329 18.2413C28.673 21.1969 27.291 23.9119 25.2616 26.0428ZM19.1666 15.7496C19.1666 14.5893 18.7276 13.4765 17.9462 12.6561C17.1648 11.8356 16.105 11.3747 15 11.3747C13.8949 11.3747 12.8351 11.8356 12.0537 12.6561C11.2723 13.4765 10.8333 14.5893 10.8333 15.7496C10.8333 16.9099 11.2723 18.0227 12.0537 18.8431C12.8351 19.6636 13.8949 20.1245 15 20.1245C16.105 20.1245 17.1648 19.6636 17.9462 18.8431C18.7276 18.0227 19.1666 16.9099 19.1666 15.7496Z" fill="white"/>
</g>
<defs>
<clipPath id="clip0_1375_3279">
<rect width="30" height="35" fill="white"/>
</clipPath>
</defs>
</svg>
