<svg width="30" height="35" viewBox="0 0 30 35" fill="none" xmlns="http://www.w3.org/2000/svg">
<path d="M24.7733 26.0106L22.795 28.0651C21.3367 29.5665 19.445 31.4985 17.1183 33.8609C16.4191 34.5709 15.4844 34.9677 14.5117 34.9677C13.539 34.9677 12.6043 34.5709 11.905 33.8609L6.08667 27.9181C5.35501 27.1638 4.74334 26.5286 4.25001 26.0106C2.22062 23.8797 0.838619 21.1647 0.278768 18.2091C-0.281083 15.2534 0.00635684 12.1898 1.10474 9.40573C2.20313 6.62162 4.06312 4.24201 6.44953 2.5678C8.83594 0.8936 11.6416 0 14.5117 0C17.3818 0 20.1874 0.8936 22.5738 2.5678C24.9602 4.24201 26.8202 6.62162 27.9186 9.40573C29.017 12.1898 29.3044 15.2534 28.7446 18.2091C28.1847 21.1647 26.8027 23.8797 24.7733 26.0106V26.0106ZM18.6783 15.7174C18.6783 14.5571 18.2394 13.4443 17.458 12.6238C16.6766 11.8034 15.6167 11.3425 14.5117 11.3425C13.4066 11.3425 12.3468 11.8034 11.5654 12.6238C10.784 13.4443 10.345 14.5571 10.345 15.7174C10.345 16.8777 10.784 17.9904 11.5654 18.8109C12.3468 19.6313 13.4066 20.0923 14.5117 20.0923C15.6167 20.0923 16.6766 19.6313 17.458 18.8109C18.2394 17.9904 18.6783 16.8777 18.6783 15.7174V15.7174Z" fill="#002640"/>
</svg>
