<svg width="36" height="35" viewBox="0 0 36 35" fill="none" xmlns="http://www.w3.org/2000/svg">
<g clip-path="url(#clip0_1375_3284)">
<path d="M24.2609 23.9556L27.1646 21.0519C27.5557 20.6656 28.0505 20.4012 28.589 20.2908C29.1274 20.1803 29.6864 20.2286 30.1979 20.4296L33.7368 21.8426C34.2538 22.0525 34.6971 22.4106 35.0108 22.872C35.3245 23.3334 35.4947 23.8773 35.4998 24.4352V30.9167C35.4968 31.2962 35.417 31.6712 35.2652 32.0191C35.1135 32.367 34.8929 32.6805 34.6168 32.9409C34.3406 33.2013 34.0147 33.4031 33.6585 33.5342C33.3023 33.6653 32.9233 33.723 32.5442 33.7037C7.74607 32.1611 2.74237 11.1611 1.79607 3.12412C1.75214 2.72945 1.79228 2.32994 1.91384 1.9519C2.0354 1.57385 2.23562 1.22582 2.50134 0.930709C2.76707 0.6356 3.09226 0.400096 3.45554 0.239691C3.81881 0.0792861 4.21193 -0.00238409 4.60904 5.29783e-05H10.8701C11.4289 0.00170677 11.9743 0.170473 12.4363 0.484646C12.8983 0.798818 13.2558 1.24403 13.4627 1.76301L14.8757 5.3019C15.0834 5.81143 15.1364 6.37088 15.0281 6.91035C14.9197 7.44983 14.6548 7.94542 14.2664 8.33523L11.3627 11.2389C11.3627 11.2389 13.035 22.5556 24.2609 23.9556Z" fill="white"/>
</g>
<defs>
<clipPath id="clip0_1375_3284">
<rect width="35" height="35" fill="white" transform="translate(0.5)"/>
</clipPath>
</defs>
</svg>
