<svg width="50" height="50" viewBox="0 0 50 50" fill="none" xmlns="http://www.w3.org/2000/svg">
<g clip-path="url(#clip0_1375_3105)">
<path d="M43.0409 15.9088H45.4545C46.6601 15.9088 47.8162 16.3877 48.6687 17.2402C49.5211 18.0926 50 19.2488 50 20.4543V29.5452C50 30.7507 49.5211 31.9069 48.6687 32.7593C47.8162 33.6118 46.6601 34.0907 45.4545 34.0907H43.0409C42.4868 38.4845 40.3483 42.5252 37.0267 45.4543C33.7051 48.3834 29.4287 49.9997 25 49.9997V45.4543C28.6166 45.4543 32.0851 44.0176 34.6424 41.4603C37.1997 38.903 38.6364 35.4345 38.6364 31.8179V18.1816C38.6364 14.565 37.1997 11.0965 34.6424 8.5392C32.0851 5.98189 28.6166 4.54521 25 4.54521C21.3834 4.54521 17.9149 5.98189 15.3576 8.5392C12.8003 11.0965 11.3636 14.565 11.3636 18.1816V34.0907H4.54545C3.33993 34.0907 2.18377 33.6118 1.33133 32.7593C0.478895 31.9069 0 30.7507 0 29.5452V20.4543C0 19.2488 0.478895 18.0926 1.33133 17.2402C2.18377 16.3877 3.33993 15.9088 4.54545 15.9088H6.95909C7.51371 11.5154 9.65245 7.47537 12.974 4.54674C16.2956 1.61811 20.5717 0.00219727 25 0.00219727C29.4283 0.00219727 33.7044 1.61811 37.026 4.54674C40.3475 7.47537 42.4863 11.5154 43.0409 15.9088ZM4.54545 20.4543V29.5452H6.81818V20.4543H4.54545ZM43.1818 20.4543V29.5452H45.4545V20.4543H43.1818ZM15.3636 33.602L17.7727 29.7475C19.9388 31.1044 22.444 31.8221 25 31.8179C27.556 31.8221 30.0612 31.1044 32.2273 29.7475L34.6364 33.602C31.7483 35.4114 28.408 36.3686 25 36.3634C21.592 36.3686 18.2517 35.4114 15.3636 33.602Z" fill="#002640"/>
</g>
<defs>
<clipPath id="clip0_1375_3105">
<rect width="50" height="50" fill="white"/>
</clipPath>
</defs>
</svg>
