<svg width="119" height="152" viewBox="0 0 119 152" fill="none" xmlns="http://www.w3.org/2000/svg">
<path d="M54.6463 4.61798C55.8996 -0.447576 63.1004 -0.447565 64.3537 4.61799L73.3562 41.0053C74.0378 43.7604 76.8734 45.3964 79.5998 44.6074L112.402 35.1149C117.161 33.7377 120.81 39.3778 117.603 43.1544L92.4585 72.7635C90.8734 74.6301 90.8734 77.3699 92.4585 79.2365L117.603 108.846C120.81 112.622 117.161 118.262 112.402 116.885L79.5998 107.393C76.8734 106.604 74.0378 108.24 73.3562 110.995L64.3537 147.382C63.1004 152.448 55.8996 152.448 54.6463 147.382L45.6438 110.995C44.9622 108.24 42.1266 106.604 39.4002 107.393L6.59827 116.885C1.83892 118.262 -1.80993 112.622 1.39719 108.846L26.5415 79.2365C28.1266 77.3699 28.1266 74.6301 26.5415 72.7635L1.39719 43.1544C-1.80993 39.3778 1.83893 33.7377 6.59828 35.1149L39.4002 44.6074C42.1266 45.3964 44.9622 43.7604 45.6438 41.0053L54.6463 4.61798Z" fill="#FF6C2E"/>
</svg>
