<svg width="50" height="50" viewBox="0 0 50 50" fill="none" xmlns="http://www.w3.org/2000/svg">
<g clip-path="url(#clip0_1375_3111)">
<path d="M25 35.7142C22.8809 35.7142 20.8094 35.0858 19.0475 33.9085C17.2855 32.7312 15.9122 31.0579 15.1013 29.1001C14.2903 27.1423 14.0782 24.988 14.4916 22.9097C14.905 20.8313 15.9254 18.9222 17.4239 17.4238C18.9223 15.9254 20.8314 14.9049 22.9097 14.4915C24.9881 14.0781 27.1424 14.2903 29.1002 15.1012C31.058 15.9122 32.7313 17.2854 33.9086 19.0474C35.0859 20.8094 35.7143 22.8808 35.7143 24.9999C35.7296 26.4112 35.4629 27.8113 34.9299 29.1181C34.3968 30.425 33.6082 31.6122 32.6102 32.6102C31.6123 33.6082 30.425 34.3968 29.1182 34.9298C27.8114 35.4628 26.4113 35.7295 25 35.7142ZM25 17.8571C24.0561 17.8356 23.1177 18.0057 22.2413 18.357C21.365 18.7084 20.569 19.2337 19.9014 19.9013C19.2338 20.5689 18.7084 21.3649 18.3571 22.2413C18.0057 23.1176 17.8357 24.056 17.8571 24.9999C17.8357 25.9438 18.0057 26.8823 18.3571 27.7586C18.7084 28.6349 19.2338 29.4309 19.9014 30.0985C20.569 30.7661 21.365 31.2915 22.2413 31.6428C23.1177 31.9942 24.0561 32.1643 25 32.1428C25.9439 32.1643 26.8823 31.9942 27.7587 31.6428C28.635 31.2915 29.431 30.7661 30.0986 30.0985C30.7662 29.4309 31.2915 28.6349 31.6429 27.7586C31.9943 26.8823 32.1643 25.9438 32.1429 24.9999C32.1643 24.056 31.9943 23.1176 31.6429 22.2413C31.2915 21.3649 30.7662 20.5689 30.0986 19.9013C29.431 19.2337 28.635 18.7084 27.7587 18.357C26.8823 18.0057 25.9439 17.8356 25 17.8571Z" fill="#002640"/>
<path d="M48.7591 16.15L44.5448 8.85C44.1323 8.13425 43.4841 7.58384 42.711 7.2927C41.9379 7.00156 41.0877 6.98773 40.3055 7.25357L35.9591 8.72321C35.21 8.21891 34.4273 7.76665 33.6162 7.36964L32.718 2.87143C32.5561 2.06151 32.1185 1.33273 31.4797 0.809178C30.8409 0.285628 30.0404 -0.000326866 29.2144 2.80393e-07H20.7859C19.9599 -0.000326866 19.1594 0.285628 18.5206 0.809178C17.8818 1.33273 17.4442 2.06151 17.2823 2.87143L16.3841 7.36964C15.5639 7.7623 14.7721 8.2116 14.0144 8.71429L9.69301 7.25357C8.9113 6.98866 8.06192 7.00297 7.28957 7.29406C6.51723 7.58516 5.8697 8.13503 5.4573 8.85L1.24301 16.15C0.830175 16.8648 0.677691 17.7006 0.811495 18.5151C0.945299 19.3296 1.35713 20.0727 1.97694 20.6179L5.42516 23.6482C5.3948 24.0982 5.3573 24.5446 5.3573 25C5.3573 25.4607 5.37515 25.9161 5.4073 26.3679L1.97873 29.3821C1.35834 29.9269 0.945821 30.6697 0.811362 31.4842C0.676904 32.2988 0.828806 33.1348 1.24123 33.85L5.45551 41.15C5.86777 41.8661 6.51578 42.4169 7.28893 42.7083C8.06207 42.9998 8.91242 43.0139 9.6948 42.7482L14.0412 41.2768C14.79 41.782 15.5728 42.2349 16.3841 42.6321L17.2823 47.1286C17.4442 47.9385 17.8818 48.6673 18.5206 49.1908C19.1594 49.7144 19.9599 50.0003 20.7859 50H28.5716V46.4286H20.7859L19.518 40.0893C17.7641 39.4378 16.136 38.4881 14.7055 37.2821L8.55015 39.3643L4.33587 32.0643L9.20194 27.7875C8.86902 25.9408 8.86479 24.0499 9.18944 22.2018L4.33587 17.9357L8.55015 10.6357L14.6698 12.7071C16.1105 11.4995 17.7513 10.5531 19.518 9.91071L20.7859 3.57143H29.2144L30.4823 9.91071C32.2361 10.5623 33.8642 11.512 35.2948 12.7179L41.4502 10.6357L45.6644 17.9357L40.668 22.3143L43.0216 25L48.0216 20.6179C48.642 20.0731 49.0545 19.3303 49.1889 18.5158C49.3234 17.7012 49.1715 16.8652 48.7591 16.15Z" fill="#002640"/>
<path d="M37.5 43.1784L32.875 38.5534L30.3571 41.0713L37.5 48.2141L50 35.7141L47.4821 33.1963L37.5 43.1784Z" fill="#002640"/>
</g>
<defs>
<clipPath id="clip0_1375_3111">
<rect width="50" height="50" fill="white"/>
</clipPath>
</defs>
</svg>
