<svg width="50" height="50" viewBox="0 0 50 50" fill="none" xmlns="http://www.w3.org/2000/svg">
<path d="M25.2247 0.00113805C26.0775 0.00113805 26.9174 0.0542631 27.6986 0.179263C28.4681 0.276053 29.2272 0.437079 29.9675 0.660513C30.7097 0.876138 31.4356 1.14489 32.1615 1.48239C32.8679 1.80426 33.5938 2.19801 34.3197 2.62614C35.5469 3.37614 36.7546 3.98239 37.9851 4.46676C40.4074 5.39749 42.9689 5.95132 45.573 6.10739C46.8946 6.19801 48.252 6.25114 49.6648 6.25114V18.7511C49.6648 21.1261 49.349 23.3761 48.7175 25.5199C48.1109 27.633 47.2489 29.6708 46.1492 31.5918C45.054 33.51 43.7583 35.3162 42.282 36.9824C40.783 38.6865 39.16 40.2863 37.4252 41.7699C35.6674 43.2578 33.8161 44.6406 31.8816 45.9105C29.948 47.198 27.9949 48.3949 26.0417 49.4824L25.2605 49.9293L24.4792 49.4824C22.4714 48.3665 20.5103 47.1749 18.6003 45.9105C16.655 44.655 14.8027 43.2714 13.0567 41.7699C11.3229 40.2863 9.70104 38.6864 8.2032 36.9824C6.73084 35.3091 5.4293 33.5039 4.31648 31.5918C3.23553 29.6623 2.37443 27.6266 1.74812 25.5199C1.1126 23.3159 0.799275 21.0379 0.817128 18.7511V6.25114C2.23314 6.25114 3.59057 6.19801 4.91218 6.10739C6.21316 6.02064 7.50572 5.84203 8.77937 5.57301C10.0261 5.30426 11.2729 4.94801 12.5001 4.46676C13.7735 3.97337 14.9944 3.36326 16.1459 2.64489C17.5782 1.75114 19.03 1.09176 20.4623 0.657388C22.0048 0.203424 23.6114 -0.0179604 25.2247 0.00113805ZM46.39 9.32301C43.9259 9.20823 41.4848 8.81275 39.1179 8.14489C36.7636 7.47068 34.521 6.47846 32.4578 5.19801C31.3875 4.52363 30.2252 3.99465 29.004 3.62614C27.784 3.27218 26.5154 3.09729 25.241 3.10739C23.9571 3.09942 22.6791 3.27423 21.4486 3.62614C20.2256 3.98267 19.0648 4.51247 18.0046 5.19801C15.9378 6.48544 13.6894 7.48202 11.3282 8.15739C9.02025 8.80114 6.60489 9.19489 4.07234 9.33864V18.7668C4.07234 20.8386 4.35228 22.8199 4.91218 24.7293C5.48258 26.622 6.26857 28.4487 7.25593 30.1761C8.25511 31.9216 9.43279 33.5672 10.7716 35.0886C12.129 36.623 13.5775 38.0511 15.14 39.4074C16.7025 40.7668 18.3399 42.0168 20.0522 43.1761C21.7807 44.3386 23.5124 45.3918 25.241 46.3543C27.0109 45.3651 28.7366 44.3048 30.4135 43.1761C32.137 42.0204 33.7831 40.7617 35.3419 39.4074C36.9044 38.0511 38.3562 36.623 39.7136 35.0886C41.0525 33.5673 42.2302 31.9217 43.2292 30.1761C44.2122 28.4509 44.9866 26.6234 45.5372 24.7293C46.1141 22.7906 46.4012 20.783 46.39 18.7668V9.32301Z" fill="#002640"/>
<path fill-rule="evenodd" clip-rule="evenodd" d="M37.3596 14.7162L35.9273 13.5349L34.6057 13.6443L20.413 29.7318L15.579 23.1068L14.2769 22.8943L12.7698 23.9287L12.5452 25.1787L18.7594 33.6974L19.4657 34.0724L20.9534 34.1599L21.7151 33.8412L37.454 15.9818L37.3596 14.7162Z" fill="#002640"/>
</svg>
