<svg width="66" height="65" viewBox="0 0 66 65" fill="none" xmlns="http://www.w3.org/2000/svg">
<g clip-path="url(#clip0_1251_3422)">
<path d="M33.2039 -0.069458C15.2456 -0.069458 0.632812 14.5393 0.632812 32.4996C0.632812 50.4599 15.2456 65.0687 33.2039 65.0687C51.1622 65.0687 65.775 50.4599 65.775 32.4996C65.775 14.5393 51.1622 -0.069458 33.2039 -0.069458ZM33.2039 62.8993C16.442 62.8993 2.80625 49.2615 2.80625 32.4996C2.80625 15.7377 16.442 2.09992 33.2039 2.09992C49.9658 2.09992 63.6016 15.7377 63.6016 32.4996C63.6016 49.2615 49.9658 62.8993 33.2039 62.8993Z" fill="white"/>
<path d="M51.0664 22.4368C51.2917 22.0197 51.4774 21.5825 51.6209 21.1307C51.6874 20.9211 51.6887 20.6964 51.6248 20.486C51.5608 20.2757 51.4346 20.0897 51.2627 19.9526C51.0909 19.8155 50.8815 19.7338 50.6622 19.7182C50.4429 19.7026 50.2241 19.7539 50.0345 19.8652C48.9937 20.4836 47.867 20.9442 46.6911 21.2323C45.2637 19.944 43.4098 19.2298 41.487 19.2274C40.4424 19.2282 39.4087 19.44 38.4478 19.8499C37.487 20.2599 36.6189 20.8596 35.8954 21.6132C35.172 22.3668 34.6082 23.2587 34.2378 24.2355C33.8674 25.2123 33.698 26.2538 33.7398 27.2976C29.1716 26.7225 25 24.4109 22.0906 20.8423C21.9791 20.7071 21.8367 20.6008 21.6753 20.5324C21.514 20.4641 21.3385 20.4356 21.1639 20.4496C20.9892 20.4636 20.8205 20.5195 20.672 20.6126C20.5236 20.7057 20.3998 20.8333 20.3112 20.9845C19.645 22.1279 19.2829 23.423 19.2595 24.7461C19.236 26.0693 19.5519 27.3764 20.1772 28.5427C20.0238 28.5686 19.8765 28.6223 19.7425 28.7012C19.5783 28.8059 19.443 28.9503 19.3493 29.1211C19.2556 29.2918 19.2064 29.4834 19.2062 29.6782C19.2062 31.9837 20.232 34.1002 21.8855 35.5384L21.8144 35.6095C21.6895 35.7507 21.6037 35.922 21.5652 36.1065C21.5267 36.291 21.537 36.4823 21.595 36.6616C21.9398 37.7372 22.5155 38.7245 23.2818 39.5543C24.0481 40.3841 24.9864 41.0364 26.0312 41.4655C23.8854 42.5123 21.484 42.9206 19.1128 42.6416C18.8691 42.6168 18.624 42.6735 18.4159 42.8029C18.2079 42.9323 18.0486 43.127 17.9631 43.3566C17.881 43.5879 17.8795 43.8402 17.9587 44.0725C18.038 44.3048 18.1935 44.5035 18.3998 44.6363C21.6235 46.7053 25.3736 47.8044 29.2041 47.8031C41.7572 47.8031 49.2606 37.6062 49.2606 27.7485L49.2586 27.4154C50.4752 26.4656 51.5319 25.3273 52.3887 24.0435C52.5185 23.8494 52.5823 23.6187 52.5707 23.3856C52.5591 23.1524 52.4728 22.9292 52.3244 22.7489C52.1761 22.5687 51.9736 22.441 51.747 22.3848C51.5205 22.3286 51.2818 22.3468 51.0664 22.4368ZM47.5219 26.0016C47.3745 26.1076 47.256 26.2489 47.1772 26.4124C47.0984 26.576 47.0619 26.7567 47.0709 26.938C47.0831 27.2062 47.0892 27.4784 47.0892 27.7465C47.0892 36.5377 40.4003 45.6316 29.2061 45.6316C27.2096 45.6326 25.2272 45.2975 23.3419 44.6404C25.5998 44.2077 27.7209 43.2394 29.527 41.817C29.7028 41.6783 29.8315 41.4888 29.8955 41.2742C29.9595 41.0597 29.9557 40.8306 29.8846 40.6183C29.8135 40.406 29.6785 40.2209 29.4981 40.0882C29.3178 39.9555 29.1009 39.8818 28.877 39.8771C28.0012 39.8604 27.1416 39.6381 26.3675 39.2281C25.5933 38.8181 24.9264 38.2319 24.4205 37.5168C24.9344 37.4823 25.4381 37.397 25.9276 37.2649C26.1646 37.2015 26.373 37.0597 26.519 36.8626C26.6649 36.6655 26.7397 36.4247 26.7312 36.1796C26.7228 35.9345 26.6315 35.6995 26.4722 35.5129C26.313 35.3264 26.0953 35.1993 25.8545 35.1524C24.8654 34.9512 23.9495 34.4849 23.2049 33.8033C22.4604 33.1217 21.9151 32.2505 21.6275 31.2829C22.1678 31.419 22.7223 31.4982 23.2769 31.5165C23.7542 31.5145 24.197 31.222 24.3453 30.7629C24.4936 30.3038 24.3189 29.798 23.9147 29.5299C22.9589 28.8931 22.223 27.9768 21.8075 26.9062C21.3919 25.8355 21.317 24.6627 21.593 23.5479C25.1213 27.1682 29.8856 29.3241 34.9342 29.5848C35.2917 29.5868 35.6045 29.4588 35.8219 29.1968C36.0392 28.9348 36.1225 28.5874 36.0453 28.2543C35.7675 27.0579 35.8918 25.8033 36.3989 24.6846C36.906 23.5659 37.7676 22.6456 38.8505 22.066C39.9334 21.4864 41.1771 21.2798 42.3892 21.4783C43.6013 21.6768 44.7142 22.2693 45.5556 23.164C45.6817 23.2985 45.84 23.3988 46.0156 23.4553C46.1911 23.5118 46.3781 23.5227 46.5591 23.4869C46.8942 23.4199 47.2253 23.3427 47.5523 23.2534C47.4049 23.3637 47.2517 23.4661 47.0933 23.5601C46.8826 23.6891 46.7222 23.886 46.6385 24.1184C46.5548 24.3508 46.5527 24.6048 46.6327 24.8385C46.7127 25.0722 46.8699 25.2717 47.0784 25.4041C47.2869 25.5366 47.5343 25.594 47.7798 25.567L48.1495 25.5202C47.9459 25.6879 47.7366 25.8485 47.5219 26.0016Z" fill="white"/>
</g>
<defs>
<clipPath id="clip0_1251_3422">
<rect width="65" height="65" fill="white" transform="translate(0.703125)"/>
</clipPath>
</defs>
</svg>
